# xmcd
#
# Track frame offsets: 
#        150
#        11153
#        47934
#        78703
#        95888
#        124663
#        154681
#        168673
#        192297
#        214294
#
# Disc length: 3278 seconds
#
# Revision: 0
# Processed by: cddbd v1.5.2PL0 Copyright (c) Steve Scherf et al.
# Submitted via: ExactAudioCopy v0.95b4
#
DISCID=900ccc0a
DTITLE=БУРАНOFFБЛЮЗ - Русская рулетка
DYEAR=2003
DGENRE=Blues
TTITLE0=Вступление
TTITLE1=Блюз вернулся
TTITLE2=Наша песня
TTITLE3=Холодно
TTITLE4=Клей
TTITLE5=Оглянись
TTITLE6=Неделя рок-н-ролла
TTITLE7=Русская рулетка
TTITLE8=Кошкин блюз
TTITLE9=Пьем за блюз
EXTD=
EXTT0=
EXTT1=
EXTT2=
EXTT3=
EXTT4=
EXTT5=
EXTT6=
EXTT7=
EXTT8=
EXTT9=
PLAYORDER=
